<svg width="46" height="46" viewBox="0 0 46 46" fill="none" xmlns="http://www.w3.org/2000/svg">
<path fill-rule="evenodd" clip-rule="evenodd" d="M44 23C44 11.402 34.598 2 23 2C11.402 2 2 11.402 2 23C2 34.598 11.402 44 23 44C34.598 44 44 34.598 44 23Z" fill="white" stroke="url(#paint0_linear_108_2)" stroke-width="2.66667" stroke-miterlimit="8"/>
<path fill-rule="evenodd" clip-rule="evenodd" d="M39.5 22.5C39.5 14.216 32.56 7.5 24 7.5C15.44 7.5 8.5 14.216 8.5 22.5C8.5 30.784 15.44 37.5 24 37.5C32.56 37.5 39.5 30.784 39.5 22.5Z" fill="#ECF0F3"/>
<path fill-rule="evenodd" clip-rule="evenodd" d="M24.769 13.5H28.5L22.231 22.5L28.5 31.5H24.769L18.5 22.5L24.769 13.5Z" fill="url(#paint1_linear_108_2)"/>
<defs>
<linearGradient id="paint0_linear_108_2" x1="23" y1="0.667" x2="23" y2="45.333" gradientUnits="userSpaceOnUse">
<stop stop-color="#6273D9"/>
<stop offset="0.02" stop-color="#6273D9"/>
<stop offset="0.23" stop-color="#4895D9"/>
<stop offset="0.41" stop-color="#36C8D9"/>
<stop offset="0.63715" stop-color="#4AD9BF"/>
<stop offset="0.82" stop-color="#B865DD"/>
<stop offset="1" stop-color="#8249D7"/>
</linearGradient>
<linearGradient id="paint1_linear_108_2" x1="23.5" y1="13.5" x2="23.5" y2="31.5" gradientUnits="userSpaceOnUse">
<stop stop-color="#6273D9"/>
<stop offset="0.02" stop-color="#6273D9"/>
<stop offset="0.23" stop-color="#4895D9"/>
<stop offset="0.41" stop-color="#36C8D9"/>
<stop offset="0.63715" stop-color="#4AD9BF"/>
<stop offset="0.82" stop-color="#B865DD"/>
<stop offset="1" stop-color="#8249D7"/>
</linearGradient>
</defs>
</svg>
