<svg width="64" height="64" viewBox="0 0 64 64" fill="none" xmlns="http://www.w3.org/2000/svg">
<g id="charity 1">
<path id="Vector" d="M34 10.5067C36.6667 8.58668 39.76 7.62668 43.2533 7.62668C45.1733 7.62668 47.28 8.13335 49.5733 9.20001C51.8667 10.24 53.68 11.4667 55.0133 12.88C57.76 16.2933 58.9067 20.2667 58.5067 24.8C58.08 29.3333 56.5867 32.88 54 35.3867L33.76 55.6267C33.2533 56.1334 32.6133 56.3733 31.8667 56.3733C31.12 56.3733 30.5067 56.1334 30 55.6267C29.4933 55.12 29.2533 54.5067 29.2533 53.76C29.2533 53.0134 29.4933 52.3734 30 51.8667L42.24 39.6267C42.9067 39.04 42.9067 38.4267 42.24 37.76C41.5733 37.0933 40.96 37.0933 40.3733 37.76L28.1333 50C27.6267 50.5067 27.0133 50.7467 26.24 50.7467C25.4933 50.7467 24.88 50.5067 24.3733 50C23.8667 49.4934 23.6267 48.88 23.6267 48.1333C23.6267 47.3867 23.8667 46.7467 24.3733 46.24L36.6133 34C37.3333 33.3333 37.3333 32.6667 36.6133 32C36 31.3333 35.4133 31.3333 34.7467 32L22.5067 44.3733C22 44.88 21.3333 45.12 20.6133 45.12C19.8667 45.12 19.2267 44.88 18.6667 44.3733C18.1333 43.8667 17.8667 43.2533 17.8667 42.5067C17.8667 41.76 18.16 41.0933 18.7467 40.5067L31.0133 28.24C31.68 27.5733 31.68 26.96 31.0133 26.3733C30.3467 25.7867 29.7067 25.7867 29.12 26.3733L16.7467 38.6667C16.16 39.2 15.5467 39.4933 14.88 39.4933C14.1333 39.4933 13.4933 39.2267 13.0133 38.6667C12.5067 38.1334 12.24 37.4933 12.24 36.7467C12.24 36 12.5067 35.3867 13.0133 34.88C21.1733 26.6667 26.2133 21.7067 28.1333 19.8667L37.6267 29.2533C38.6667 30.24 39.8667 30.7467 41.3333 30.7467C43.2 30.7467 44.6667 30 45.76 28.5067C46.5067 27.4133 46.7733 26.2133 46.56 24.88C46.3467 23.5467 45.7867 22.4267 44.88 21.4933L34 10.5067ZM39.4933 27.3867L28.1333 16L9.25333 34.88C7.01333 32.6133 5.73333 29.1467 5.43999 24.4267C5.14666 19.7333 6.42666 15.6533 9.25333 12.24C12.4267 9.09335 16.2133 7.49335 20.6133 7.49335C25.04 7.49335 28.8 9.09335 31.8667 12.24L43.2533 23.6267C43.76 24.1333 44 24.7467 44 25.4933C44 26.24 43.76 26.88 43.2533 27.3867C42.7467 27.8667 42.1333 28.1333 41.3333 28.1333C40.6133 28.1333 40 27.8667 39.4933 27.3867Z" fill="black"/>
</g>
</svg>
