<svg width="94" height="94" viewBox="0 0 94 94" fill="none" xmlns="http://www.w3.org/2000/svg">
<g id="Group 22">
<path id="Vector" d="M47 94C72.9574 94 94 72.9574 94 47C94 21.0426 72.9574 0 47 0C21.0426 0 0 21.0426 0 47C0 72.9574 21.0426 94 47 94Z" fill="#4895D9"/>
<path id="Vector_2" d="M43.8384 30.5605H51.8231L60.5797 21.7865C60.8272 21.5373 61.1215 21.3395 61.4459 21.2045C61.7702 21.0695 62.1181 21 62.4694 21C62.8208 21 63.1687 21.0695 63.493 21.2045C63.8174 21.3395 64.1117 21.5373 64.3592 21.7865L71.226 28.6728C71.7218 29.1709 72 29.8448 72 30.5472C72 31.2496 71.7218 31.9235 71.226 32.4217L65.131 38.5369H43.8384V43.8545C43.8384 44.5597 43.558 45.2359 43.0589 45.7346C42.5597 46.2332 41.8827 46.5133 41.1768 46.5133C40.471 46.5133 39.794 46.2332 39.2948 45.7346C38.7957 45.2359 38.5153 44.5597 38.5153 43.8545V35.8781C38.5153 34.4678 39.0761 33.1152 40.0744 32.118C41.0727 31.1207 42.4266 30.5605 43.8384 30.5605ZM27.869 43.8545V54.4897L21.774 60.5783C21.2782 61.0765 21 61.7504 21 62.4528C21 63.1552 21.2782 63.8291 21.774 64.3272L28.6408 71.2135C28.8883 71.4627 29.1826 71.6605 29.507 71.7955C29.8313 71.9305 30.1792 72 30.5305 72C30.8819 72 31.2298 71.9305 31.5541 71.7955C31.8785 71.6605 32.1728 71.4627 32.4203 71.2135L43.8384 59.8073H54.4847C55.1906 59.8073 55.8676 59.5272 56.3667 59.0285C56.8659 58.5299 57.1463 57.8536 57.1463 57.1485V54.4897H59.8079C60.5138 54.4897 61.1908 54.2096 61.6899 53.7109C62.189 53.2123 62.4694 52.536 62.4694 51.8309V49.1721H65.131C65.8369 49.1721 66.5139 48.892 67.013 48.3933C67.5122 47.8947 67.7926 47.2185 67.7926 46.5133V43.8545H49.1616V46.5133C49.1616 47.9236 48.6007 49.2762 47.6025 50.2734C46.6042 51.2706 45.2502 51.8309 43.8384 51.8309H38.5153C37.1035 51.8309 35.7495 51.2706 34.7512 50.2734C33.753 49.2762 33.1921 47.9236 33.1921 46.5133V38.5369L27.869 43.8545Z" fill="#EFF3FC"/>
</g>
</svg>
