<svg width="94" height="94" viewBox="0 0 94 94" fill="none" xmlns="http://www.w3.org/2000/svg">
<g id="Group 20">
<path id="Vector" d="M47 94C72.9574 94 94 72.9574 94 47C94 21.0426 72.9574 0 47 0C21.0426 0 0 21.0426 0 47C0 72.9574 21.0426 94 47 94Z" fill="#4AD9BF"/>
<path id="Vector_2" d="M36.08 21H57.92C66.24 21 73 27.76 73 36.08V57.92C73 61.9195 71.4112 65.7551 68.5832 68.5832C65.7551 71.4112 61.9195 73 57.92 73H36.08C27.76 73 21 66.24 21 57.92V36.08C21 32.0805 22.5888 28.2449 25.4168 25.4168C28.2449 22.5888 32.0805 21 36.08 21ZM35.56 26.2C33.0776 26.2 30.6968 27.1861 28.9415 28.9415C27.1861 30.6968 26.2 33.0776 26.2 35.56V58.44C26.2 63.614 30.386 67.8 35.56 67.8H58.44C60.9224 67.8 63.3032 66.8139 65.0585 65.0585C66.8139 63.3032 67.8 60.9224 67.8 58.44V35.56C67.8 30.386 63.614 26.2 58.44 26.2H35.56ZM60.65 30.1C61.512 30.1 62.3386 30.4424 62.9481 31.0519C63.5576 31.6614 63.9 32.488 63.9 33.35C63.9 34.212 63.5576 35.0386 62.9481 35.6481C62.3386 36.2576 61.512 36.6 60.65 36.6C59.788 36.6 58.9614 36.2576 58.3519 35.6481C57.7424 35.0386 57.4 34.212 57.4 33.35C57.4 32.488 57.7424 31.6614 58.3519 31.0519C58.9614 30.4424 59.788 30.1 60.65 30.1ZM47 34C50.4478 34 53.7544 35.3696 56.1924 37.8076C58.6304 40.2456 60 43.5522 60 47C60 50.4478 58.6304 53.7544 56.1924 56.1924C53.7544 58.6304 50.4478 60 47 60C43.5522 60 40.2456 58.6304 37.8076 56.1924C35.3696 53.7544 34 50.4478 34 47C34 43.5522 35.3696 40.2456 37.8076 37.8076C40.2456 35.3696 43.5522 34 47 34ZM47 39.2C44.9313 39.2 42.9473 40.0218 41.4846 41.4846C40.0218 42.9473 39.2 44.9313 39.2 47C39.2 49.0687 40.0218 51.0527 41.4846 52.5154C42.9473 53.9782 44.9313 54.8 47 54.8C49.0687 54.8 51.0527 53.9782 52.5154 52.5154C53.9782 51.0527 54.8 49.0687 54.8 47C54.8 44.9313 53.9782 42.9473 52.5154 41.4846C51.0527 40.0218 49.0687 39.2 47 39.2Z" fill="#E9F2FA"/>
</g>
</svg>
