<svg width="64" height="64" viewBox="0 0 64 64" fill="none" xmlns="http://www.w3.org/2000/svg">
<g id="lamp 1">
<path id="Vector" d="M44.1922 7.29719C39.8631 3.72959 34.1642 2.30995 28.5597 3.40115C21.0145 4.8699 14.9546 11.2392 13.8232 18.8903C12.9004 25.1339 15.1185 31.3693 19.7568 35.5708C21.8467 37.4636 23.1076 40.1901 23.3078 43.2487C23.3116 43.3042 23.3225 43.3578 23.3346 43.4107V53.0019C23.3346 53.53 23.7625 53.9585 24.2912 53.9585H25.2447C25.633 56.7385 27.6764 58.8673 30.1375 58.8673H34.4805C36.9416 58.8673 38.9843 56.7385 39.3727 53.9585H40.3261C40.8542 53.9585 41.2828 53.53 41.2828 53.0019V43.2577C41.2828 43.2557 41.2834 43.2538 41.2834 43.2513C41.2834 40.4056 42.5755 37.6575 44.9224 35.5134C48.7884 31.9815 51.0052 26.9579 51.0052 21.7315C51.0059 16.1269 48.5225 10.8654 44.1922 7.29719ZM28.9264 25.4528H27.4564C26.6458 25.4528 25.9864 24.7934 25.9864 23.9828C25.9864 23.1722 26.6458 22.5128 27.4564 22.5128C28.2669 22.5128 28.9264 23.1722 28.9264 23.9828V25.4528ZM35.6923 23.9828C35.6923 23.1722 36.3517 22.5128 37.1629 22.5128C37.9735 22.5128 38.6329 23.1722 38.6329 23.9828C38.6329 24.7934 37.9735 25.4528 37.1629 25.4528H35.6942L35.6923 23.9828ZM35.1164 44.1397H39.3702V52.0453H38.4945C38.4926 52.0453 38.4907 52.0446 38.4881 52.0446C38.4856 52.0446 38.4843 52.0453 38.4818 52.0453H26.1362C26.1343 52.0453 26.1324 52.0446 26.1299 52.0446C26.1273 52.0446 26.126 52.0453 26.1235 52.0453H25.2485V44.1397H34.4104M30.8396 42.2264V27.3661H33.7841L33.8058 42.2264H30.8396ZM34.4805 56.9541H30.1375C28.7102 56.9541 27.5119 55.676 27.1802 53.9585H37.4371C37.1061 55.676 35.9078 56.9541 34.4805 56.9541ZM43.6322 34.1014C41.1629 36.3571 39.7011 39.2117 39.4276 42.2264H35.7184L35.6974 27.3661H37.1629C39.0283 27.3661 40.5462 25.8482 40.5462 23.9828C40.5462 22.1173 39.0283 20.5995 37.1629 20.5995C35.2969 20.5995 33.779 22.1173 33.779 23.9841L33.7809 25.4528H30.8396V23.9828C30.8396 22.1173 29.3218 20.5995 27.4564 20.5995C25.591 20.5995 24.0731 22.1173 24.0731 23.9828C24.0731 25.8482 25.591 27.3661 27.4564 27.3661H28.9264V42.2264H25.1177C24.7121 39.0344 23.2912 36.1901 21.0406 34.1524C16.8774 30.3807 14.8863 24.78 15.7154 19.1696C16.7301 12.3074 22.1618 6.59566 28.9245 5.2787C33.9678 4.29783 39.0889 5.57079 42.9741 8.7736C46.8618 11.977 49.0914 16.7003 49.0914 21.7321C49.0926 26.4222 47.1022 30.9311 43.6322 34.1014Z" fill="black"/>
</g>
</svg>
