<svg width="56" height="56" viewBox="0 0 56 56" fill="none" xmlns="http://www.w3.org/2000/svg">
<g id="lock 4" clip-path="url(#clip0_22_14)">
<g id="Group">
<g id="Group_2">
<path id="Vector" d="M28 18.7861C17.74 18.7861 9.39302 27.1336 9.39302 37.3931C9.39302 47.6527 17.7401 56 28 56C38.2599 56 46.607 47.6527 46.607 37.393C46.607 27.1335 38.2599 18.7861 28 18.7861ZM28 53.9326C18.8802 53.9326 11.4604 46.5128 11.4604 37.393C11.4604 28.2732 18.8802 20.8535 28 20.8535C37.1197 20.8535 44.5395 28.2733 44.5395 37.393C44.5395 46.5127 37.1197 53.9326 28 53.9326Z" fill="black"/>
</g>
</g>
<g id="Group_3">
<g id="Group_4">
<path id="Vector_2" d="M33.7798 6.67005C33.3523 5.06902 32.3267 3.73246 30.8932 2.9046L27.3034 0.832159C25.8689 0.00440866 24.1992 -0.21467 22.5982 0.214409C20.9997 0.643487 19.6631 1.67107 18.8343 3.10563L15.7336 8.47616C15.4485 8.97075 15.6175 9.60272 16.1121 9.88841C16.6063 10.1731 17.2383 10.0025 17.5244 9.50986L20.6251 4.13933C21.1773 3.1823 22.0686 2.49685 23.1347 2.21116C24.1981 1.92449 25.3132 2.06985 26.2697 2.62307L29.8595 4.69561C30.8144 5.24675 31.4974 6.13717 31.7825 7.20424C32.0677 8.27031 31.9203 9.38474 31.3677 10.3418L28.267 15.7123C27.9817 16.2069 28.1508 16.8389 28.6455 17.1246C28.8086 17.2184 28.9862 17.2629 29.1613 17.2629C29.5187 17.2629 29.8659 17.0772 30.0578 16.746L33.1585 11.3755C33.9868 9.9408 34.2074 8.26911 33.7798 6.67005Z" fill="black"/>
</g>
</g>
<g id="Group_5">
<g id="Group_6">
<path id="Vector_3" d="M27.893 32.2245C27.3222 32.2245 26.8593 32.6868 26.8593 33.2582V40.4942C26.8593 41.0656 27.3222 41.5279 27.893 41.5279C28.4639 41.5279 28.9267 41.0656 28.9267 40.4942V33.2582C28.9267 32.6868 28.4639 32.2245 27.893 32.2245Z" fill="black"/>
</g>
</g>
</g>
<defs>
<clipPath id="clip0_22_14">
<rect width="56" height="56" fill="white"/>
</clipPath>
</defs>
</svg>
