<svg width="94" height="94" viewBox="0 0 94 94" fill="none" xmlns="http://www.w3.org/2000/svg">
<g id="Group 26">
<path id="Vector" d="M47 94C72.9574 94 94 72.9574 94 47C94 21.0426 72.9574 0 47 0C21.0426 0 0 21.0426 0 47C0 72.9574 21.0426 94 47 94Z" fill="#B865DD"/>
<path id="Vector_2" d="M46.5 71C32.9687 71 22 60.0313 22 46.5C22 32.9687 32.9687 22 46.5 22C60.0313 22 71 32.9687 71 46.5C71 60.0313 60.0313 71 46.5 71ZM37.925 51.4V56.3H44.05V61.2H48.95V56.3H51.4C53.0245 56.3 54.5824 55.6547 55.731 54.506C56.8797 53.3574 57.525 51.7995 57.525 50.175C57.525 48.5505 56.8797 46.9926 55.731 45.844C54.5824 44.6953 53.0245 44.05 51.4 44.05H41.6C41.2751 44.05 40.9635 43.9209 40.7338 43.6912C40.5041 43.4615 40.375 43.1499 40.375 42.825C40.375 42.5001 40.5041 42.1885 40.7338 41.9588C40.9635 41.7291 41.2751 41.6 41.6 41.6H55.075V36.7H48.95V31.8H44.05V36.7H41.6C39.9755 36.7 38.4176 37.3453 37.269 38.494C36.1203 39.6426 35.475 41.2006 35.475 42.825C35.475 44.4495 36.1203 46.0074 37.269 47.156C38.4176 48.3047 39.9755 48.95 41.6 48.95H51.4C51.7249 48.95 52.0365 49.0791 52.2662 49.3088C52.4959 49.5385 52.625 49.8501 52.625 50.175C52.625 50.4999 52.4959 50.8115 52.2662 51.0412C52.0365 51.2709 51.7249 51.4 51.4 51.4H37.925Z" fill="#F3F6FE"/>
</g>
</svg>
