<svg width="65" height="65" viewBox="0 0 65 65" fill="none" xmlns="http://www.w3.org/2000/svg">
<g clip-path="url(#clip0_12_157)">
<path fill-rule="evenodd" clip-rule="evenodd" d="M40.1132 44.7482C36.7198 47.2763 47.2716 36.4158 44.269 40.5442C44.3441 40.5381 44.2048 40.7671 43.738 41.3408C43.738 41.3408 51.757 49.3576 55.6934 53.4376C57.06 54.925 54.5944 57.8938 52.9192 56.3439C49.3545 52.8628 40.9197 44.2118 40.9066 44.1976L40.1132 44.7482Z" fill="black"/>
<path d="M28.33 48.802C33.4897 48.7516 38.5973 46.6007 42.2702 42.9472C46.6324 38.6081 48.8786 32.1886 48.0952 26.0595C46.7526 15.557 38.1745 8.42957 28.2018 8.42957C20.6245 8.42957 13.2607 13.2003 10.0306 20.118C7.55796 25.4141 7.55295 31.8084 10.0306 37.1136C13.2376 43.9828 20.4812 48.7284 28.0725 48.802C28.1587 48.802 28.2448 48.802 28.33 48.802ZM28.0936 45.437C20.3881 45.3623 13.1986 39.3644 11.7689 31.6743C10.761 26.2531 12.6636 20.3862 16.627 16.5361C21.2537 12.0396 28.5264 10.5341 34.5737 13.0823C39.9839 15.3623 44.0335 20.6565 44.7799 26.4891C45.4191 31.4887 43.6368 36.7284 40.1342 40.3375C37.0614 43.5039 32.7523 45.3936 28.309 45.437C28.2368 45.437 28.1657 45.437 28.0936 45.437Z" fill="black"/>
</g>
<defs>
<clipPath id="clip0_12_157">
<rect width="64.1205" height="64.5378" fill="white" transform="translate(0.0979309 0.235291)"/>
</clipPath>
</defs>
</svg>
