<svg width="65" height="65" viewBox="0 0 65 65" fill="none" xmlns="http://www.w3.org/2000/svg">
<g id="user 1">
<g id="Icon">
<path id="Vector" fill-rule="evenodd" clip-rule="evenodd" d="M32.9397 6.28571C18.5634 6.28571 6.89078 18.0343 6.89078 32.5042C6.89078 46.9741 18.5634 58.7227 32.9397 58.7227C47.3161 58.7227 58.9887 46.9741 58.9887 32.5042C58.9887 18.0343 47.3161 6.28571 32.9397 6.28571ZM46.9661 49.6121V44.9089C46.9661 43.8844 46.3677 42.9593 45.4406 42.5425C45.4379 42.5425 45.4379 42.5425 45.4352 42.5425C41.5399 40.8 37.324 39.8992 33.0626 39.8992C32.9798 39.8992 32.8997 39.8992 32.8168 39.8992C28.5555 39.8992 24.3396 40.8 20.4443 42.5425C20.4416 42.5425 20.4416 42.5425 20.4389 42.5425C19.5118 42.9593 18.9134 43.8844 18.9134 44.9089V49.6121C22.7232 52.7825 27.6124 54.6891 32.9397 54.6891C38.2671 54.6891 43.1563 52.7825 46.9661 49.6121ZM50.9736 45.2558C53.4984 41.6471 54.9812 37.2477 54.9812 32.5042C54.9812 20.2608 45.1039 10.3193 32.9397 10.3193C20.7755 10.3193 10.8983 20.2608 10.8983 32.5042C10.8983 37.2477 12.3811 41.6471 14.9058 45.2558V44.9089C14.9058 42.2924 16.4367 39.9207 18.8119 38.8585C18.8145 38.8585 18.8145 38.8558 18.8145 38.8558C23.2228 36.8847 27.9944 35.8655 32.8168 35.8655C32.8997 35.8655 32.9798 35.8655 33.0626 35.8655C37.885 35.8655 42.6567 36.8847 47.065 38.8558C47.065 38.8558 47.065 38.8585 47.0676 38.8585C49.4428 39.9207 50.9736 42.2924 50.9736 44.9089V45.2558Z" fill="black"/>
<path id="Vector_2" fill-rule="evenodd" clip-rule="evenodd" d="M32.9397 13.0084C27.4093 13.0084 22.9209 17.526 22.9209 23.0924C22.9209 28.6588 27.4093 33.1765 32.9397 33.1765C38.4701 33.1765 42.9586 28.6588 42.9586 23.0924C42.9586 17.526 38.4701 13.0084 32.9397 13.0084ZM32.9397 17.042C36.258 17.042 38.951 19.7526 38.951 23.0924C38.951 26.4323 36.258 29.1428 32.9397 29.1428C29.6215 29.1428 26.9284 26.4323 26.9284 23.0924C26.9284 19.7526 29.6215 17.042 32.9397 17.042Z" fill="black"/>
</g>
</g>
</svg>
