<svg width="94" height="94" viewBox="0 0 94 94" fill="none" xmlns="http://www.w3.org/2000/svg">
<g id="Group 23">
<path id="Vector" d="M47 94C72.9574 94 94 72.9574 94 47C94 21.0426 72.9574 0 47 0C21.0426 0 0 21.0426 0 47C0 72.9574 21.0426 94 47 94Z" fill="#4AD9BF"/>
<path id="Vector_2" d="M47 41.8C49.9174 41.8 52.7153 42.9589 54.7782 45.0218C56.8411 47.0847 58 49.8826 58 52.8V66H36V52.8C36 49.8826 37.1589 47.0847 39.2218 45.0218C41.2847 42.9589 44.0826 41.8 47 41.8ZM32.2336 48.4132C31.8835 49.5941 31.6767 50.8129 31.6176 52.0432L31.6 52.8V66H25V56.1C24.9996 54.2027 25.6997 52.372 26.966 50.9591C28.2323 49.5462 29.9757 48.6505 31.8618 48.444L32.2336 48.4132ZM61.7664 48.4132C63.7242 48.5325 65.5627 49.3943 66.9069 50.8227C68.2511 52.2511 68.9997 54.1386 69 56.1V66H62.4V52.8C62.4 51.2754 62.18 49.8036 61.7664 48.4132ZM32.7 35.2C34.1587 35.2 35.5576 35.7795 36.5891 36.8109C37.6205 37.8424 38.2 39.2413 38.2 40.7C38.2 42.1587 37.6205 43.5576 36.5891 44.5891C35.5576 45.6205 34.1587 46.2 32.7 46.2C31.2413 46.2 29.8424 45.6205 28.8109 44.5891C27.7795 43.5576 27.2 42.1587 27.2 40.7C27.2 39.2413 27.7795 37.8424 28.8109 36.8109C29.8424 35.7795 31.2413 35.2 32.7 35.2ZM61.3 35.2C62.7587 35.2 64.1576 35.7795 65.1891 36.8109C66.2205 37.8424 66.8 39.2413 66.8 40.7C66.8 42.1587 66.2205 43.5576 65.1891 44.5891C64.1576 45.6205 62.7587 46.2 61.3 46.2C59.8413 46.2 58.4424 45.6205 57.4109 44.5891C56.3795 43.5576 55.8 42.1587 55.8 40.7C55.8 39.2413 56.3795 37.8424 57.4109 36.8109C58.4424 35.7795 59.8413 35.2 61.3 35.2ZM47 22C49.3339 22 51.5722 22.9271 53.2225 24.5775C54.8729 26.2278 55.8 28.4661 55.8 30.8C55.8 33.1339 54.8729 35.3722 53.2225 37.0225C51.5722 38.6729 49.3339 39.6 47 39.6C44.6661 39.6 42.4278 38.6729 40.7775 37.0225C39.1271 35.3722 38.2 33.1339 38.2 30.8C38.2 28.4661 39.1271 26.2278 40.7775 24.5775C42.4278 22.9271 44.6661 22 47 22Z" fill="#E8EEF9"/>
</g>
</svg>
