<svg width="94" height="94" viewBox="0 0 94 94" fill="none" xmlns="http://www.w3.org/2000/svg">
<g id="Group 25">
<path id="Vector" d="M47 94C72.9574 94 94 72.9574 94 47C94 21.0426 72.9574 0 47 0C21.0426 0 0 21.0426 0 47C0 72.9574 21.0426 94 47 94Z" fill="#6273D9"/>
<path id="Vector_2" d="M25 26H27.4444M27.4444 26H66.5556M27.4444 26V55.3333H42.1111M66.5556 26H69M66.5556 26V55.3333H51.8889M42.1111 55.3333H51.8889M42.1111 55.3333L37.2222 70M51.8889 55.3333L56.7778 70M44.5556 45.5556V35.7778L51.8889 40.6667L44.5556 45.5556Z" stroke="#F0F5FD" stroke-width="4" stroke-linecap="round" stroke-linejoin="round"/>
</g>
</svg>
