<svg width="94" height="94" viewBox="0 0 94 94" fill="none" xmlns="http://www.w3.org/2000/svg">
<g id="Group 21">
<path id="Vector" d="M47 94C72.9574 94 94 72.9574 94 47C94 21.0426 72.9574 0 47 0C21.0426 0 0 21.0426 0 47C0 72.9574 21.0426 94 47 94Z" fill="#6273D9"/>
<path id="Vector_2" d="M49.3 52.6111H44.7C43.435 52.6111 42.4 51.5861 42.4 50.3333H26.323V59.4444C26.323 61.95 28.393 64 30.923 64H63.1C65.63 64 67.7 61.95 67.7 59.4444V50.3333H51.6C51.6 51.5861 50.565 52.6111 49.3 52.6111ZM65.4 32.1111H56.2C56.2 27.0772 52.083 23 47 23C41.917 23 37.8 27.0772 37.8 32.1111H28.6C26.07 32.1111 24 34.1611 24 36.6667V43.5C24 46.0283 26.047 48.0556 28.6 48.0556H42.4V45.7778C42.4 44.525 43.435 43.5 44.7 43.5H49.3C50.565 43.5 51.6 44.525 51.6 45.7778V48.0556H65.4C67.93 48.0556 70 46.0056 70 43.5V36.6667C70 34.1611 67.93 32.1111 65.4 32.1111ZM42.4 32.1111C42.4 29.6056 44.47 27.5556 47 27.5556C49.53 27.5556 51.6 29.6056 51.6 32.1111H42.377H42.4Z" fill="black"/>
<path id="Vector_3" d="M49.3 52.6111H44.7C43.435 52.6111 42.4 51.5861 42.4 50.3333H26.323V59.4444C26.323 61.95 28.393 64 30.923 64H63.1C65.63 64 67.7 61.95 67.7 59.4444V50.3333H51.6C51.6 51.5861 50.565 52.6111 49.3 52.6111ZM65.4 32.1111H56.2C56.2 27.0772 52.083 23 47 23C41.917 23 37.8 27.0772 37.8 32.1111H28.6C26.07 32.1111 24 34.1611 24 36.6667V43.5C24 46.0283 26.047 48.0556 28.6 48.0556H42.4V45.7778C42.4 44.525 43.435 43.5 44.7 43.5H49.3C50.565 43.5 51.6 44.525 51.6 45.7778V48.0556H65.4C67.93 48.0556 70 46.0056 70 43.5V36.6667C70 34.1611 67.93 32.1111 65.4 32.1111ZM42.4 32.1111C42.4 29.6056 44.47 27.5556 47 27.5556C49.53 27.5556 51.6 29.6056 51.6 32.1111H42.377H42.4Z" fill="#E8EEF9"/>
</g>
</svg>
