<svg width="64" height="64" viewBox="0 0 64 64" fill="none" xmlns="http://www.w3.org/2000/svg">
<path d="M28.5 5C26.8 6.9 26.8 10.3 28.5 17.2C29.1 19.4 28.9 20 27.6 20C25.7 20 22.6 24.5 23.5 26C23.8 26.6 28.1 27 33.6 27C42.9 27 43 27 43 24.5C43 22.8 42.1 21.6 40 20.5C36.6 18.8 36.6 18.6 38.1 15.8C40.3 11.8 40.1 8 37.5 5.4C34.6 2.5 30.9 2.3 28.5 5ZM36.6 10.7C34.7 21.5 34.6 20.7 37.7 22.4C40.4 23.9 40.4 23.9 33.5 23.9H26.5L29.3 21.9C32 19.8 32.8 17.2 31.1 15.4C29.4 13.5 29 8.1 30.6 6.6C31.8 5.4 32.6 5.3 34.6 6.2C36.8 7.2 37.1 7.9 36.6 10.7Z" fill="black"/>
<path d="M17.8 14.5C13.3 17.6 8.7 26.4 9.2 31.2C9.7 36.1 11.4 34.8 12.1 29C12.9 23.3 16.5 17.9 21.1 15.5C24.1 13.9 25 12 22.7 12C22 12 19.8 13.1 17.8 14.5Z" fill="black"/>
<path d="M42 12.5C42 12.8 44.2 15.1 46.9 17.7C51.5 22.2 54 27.3 54 32.2C54 33.2 54.5 34 55.1 34C57.2 34 55.5 24.3 52.6 20C49.6 15.5 42 10.1 42 12.5Z" fill="black"/>
<path d="M9.5 37.9C7.8 39.9 7.7 45.4 9.4 50.5C9.9 52 9.4 52.9 7 54.2C5.2 55.2 4 56.7 4 58C4 59.9 4.6 60 14 60C23.4 60 24 59.9 24 58C24 56.7 22.8 55.2 21 54.2C18.6 52.9 18.1 52 18.6 50.5C18.9 49.4 19.5 46.5 19.7 44.1C20.2 40.3 19.9 39.4 17.9 37.9C14.8 35.5 11.7 35.5 9.5 37.9ZM16.1 40C18.5 41.3 18.5 43.8 16.3 48.6L14.5 52.2L18 55.1L21.5 57.9L14 58H6.5L9.8 55.4C13 52.8 13.9 50.3 12 48.4C10.6 47 9.9 43 10.6 40.8C11.2 38.8 13.2 38.5 16.1 40Z" fill="black"/>
<path d="M46.7 37.8C44.7 40 44.5 45.8 46.2 49.6C47.3 51.8 47.2 52.4 46.1 52.8C44 53.5 41 56.8 41 58.5C41 59.7 42.8 60 51 60C59.9 60 61 59.8 61 58.2C61 57.3 59.6 55.3 57.9 53.9C54.9 51.5 54.8 51.2 56.2 48.4C58.2 44.4 57.6 39.9 54.8 37.8C51.8 35.5 48.7 35.5 46.7 37.8ZM53.1 40C55.4 41.3 55.6 45.7 53.5 48.8C51.6 51.4 52.8 54.5 56 55.5C60.2 56.8 57.7 58 50.8 58H43.5L46.8 55.4C49.9 53 51 49.7 49.1 48.6C47.9 47.8 46.9 42.4 47.6 40.5C48.3 38.8 50.3 38.6 53.1 40Z" fill="black"/>
<path d="M22 50.4C22 51.4 23.8 52.3 27.5 53.1C31.9 54.1 33.9 54.1 38 52.9C40.9 52.1 43 51 42.8 50.5C42.6 49.9 41.6 49.7 40.5 50C37.1 50.7 26.6 50.5 24.3 49.7C22.6 49.1 22 49.2 22 50.4Z" fill="black"/>
</svg>
